<svg version="1.2" xmlns="http://www.w3.org/2000/svg" viewBox="0 0 1024 1024" width="1024" height="1024">
	<style>
		.s0 { fill: #10100e } 
	</style>
	<path id="Path 0" fill-rule="evenodd" class="s0" d="m157 36h145l-0.03 170.75c-0.01 93.91 0.32 171.08 0.75 171.47 0.43 0.4 1.91-0.1 3.28-1.12 1.38-1.02 4.14-3.37 6.14-5.22 1.99-1.86 5.97-5.18 8.84-7.38 2.86-2.2 7.18-5.57 9.59-7.5 2.41-1.93 5.74-4.51 7.41-5.75 1.66-1.24 3.36-2.24 3.77-2.22 0.41 0.02 1.65-0.89 2.75-2.03 1.1-1.14 2.45-2.03 3-1.99 0.55 0.04 1.68-0.65 2.5-1.54 0.82-0.89 3.07-2.41 5-3.39 1.93-0.97 4.63-2.4 6-3.17 1.38-0.78 2.73-1.64 3-1.91 0.27-0.27 1.63-1.14 3-1.92 1.38-0.79 6.77-3.56 12-6.17 5.23-2.61 10.74-5 12.25-5.33 1.51-0.32 2.75-1.03 2.75-1.58 0-0.55 0.68-1 1.5-1 0.82 0 2.29-0.4 3.25-0.88 0.96-0.49 2.88-1.33 4.25-1.87 1.38-0.54 3.63-1.47 5-2.07 1.38-0.6 7-2.51 12.5-4.25 5.5-1.73 10.79-3.55 11.75-4.04 0.96-0.49 2.43-0.66 3.25-0.39 0.82 0.27 1.73 0.05 2-0.5 0.27-0.55 2.07-1 4-1 1.93 0 3.73-0.45 4-1 0.27-0.55 2.3-1 4.5-1 2.2 0 4.23-0.45 4.5-1 0.27-0.55 2.21-1 4.3-1 2.09 0 4.23-0.41 4.75-0.91 0.52-0.5 3.43-1.18 6.45-1.52 3.02-0.33 9.1-1.1 13.5-1.7 4.52-0.62 23.01-1.1 42.5-1.1 19.49 0 37.98 0.48 42.5 1.1 4.4 0.6 10.48 1.37 13.5 1.7 3.02 0.34 5.95 1.03 6.5 1.54 0.55 0.51 2.91 0.92 5.25 0.91 2.34-0.01 4.48 0.43 4.75 0.98 0.27 0.55 2.19 1.19 4.25 1.42 2.06 0.23 5.77 0.92 8.25 1.53 2.48 0.61 5.17 1.24 6 1.4 0.83 0.15 2.85 0.63 4.5 1.04 1.65 0.42 3.9 1.13 5 1.57 1.1 0.45 4.02 1.39 6.5 2.1 2.48 0.71 4.95 1.67 5.5 2.13 0.55 0.46 1.79 0.84 2.75 0.83 0.96-0.01 2.65 0.43 3.75 0.98 1.1 0.55 2.9 1.45 4 2 1.1 0.55 2.9 1 4 1 1.1 0 2 0.45 2 1 0 0.55 0.9 1 2 1 1.1 0 2.23 0.45 2.5 1 0.27 0.55 1.29 1.01 2.25 1.02 0.96 0.01 5.13 1.68 9.25 3.71 4.13 2.04 7.61 4.05 7.75 4.49 0.14 0.43 1.15 0.78 2.25 0.78 1.1 0 2 0.45 2 1 0 0.55 0.9 1 2 1 1.1 0 2 0.34 2 0.75-0.01 0.41 1.68 1.56 3.75 2.56 2.06 0.99 5.55 2.81 7.75 4.02 2.2 1.22 5.91 3.45 8.25 4.95 2.34 1.49 4.59 2.72 5 2.71 0.41-0.01 1.42 0.9 2.25 2.01 0.83 1.11 1.95 2.02 2.5 2.01 0.55 0 2.35 1.13 4 2.52 1.65 1.39 3.23 2.5 3.5 2.47 0.27-0.04 1.96 1.3 3.75 2.97 1.79 1.66 3.59 3.05 4 3.07 0.41 0.02 2.55 1.61 4.75 3.52 2.2 1.92 7.56 6.51 11.92 10.21 4.35 3.7 12.68 11.5 18.5 17.34 5.82 5.83 13.28 13.85 16.58 17.82 3.3 3.97 7.45 8.88 9.21 10.9 1.77 2.02 3.25 4.12 3.29 4.67 0.05 0.55 0.9 1.68 1.89 2.5 1 0.82 2.56 2.96 3.46 4.75 0.91 1.79 1.99 3.23 2.4 3.21 0.41-0.02 1.42 1.35 2.25 3.04 0.83 1.69 1.84 3.06 2.25 3.04 0.41-0.02 0.74 0.52 0.73 1.21-0.01 0.69 0.78 2.15 1.75 3.25 0.97 1.1 2.43 3.35 3.23 5 0.8 1.65 2.15 3.85 3 4.89 0.85 1.04 2.49 3.74 3.64 6 1.16 2.26 4.55 8.84 7.54 14.61 2.99 5.77 6.05 12.07 6.8 14 0.76 1.93 2.43 5.86 3.72 8.75 1.29 2.89 2.34 5.93 2.34 6.75 0 0.82 0.45 1.5 1 1.5 0.55 0 1 1.13 1 2.5 0 1.38 0.45 2.73 1 3 0.55 0.27 1 1.4 1 2.5 0 1.1 0.45 2.9 1 4 0.55 1.1 1.45 2.9 2 4 0.55 1.1 1 2.9 1 4 0 1.1 0.45 2.23 1 2.5 0.55 0.27 1.17 1.96 1.39 3.75 0.21 1.79 0.62 4.15 0.91 5.25 0.3 1.1 1.07 4.02 1.72 6.5 0.65 2.48 1.36 6.19 1.58 8.25 0.22 2.06 0.85 3.98 1.4 4.25 0.55 0.27 1 2.3 1 4.5 0 2.2 0.45 4.23 1 4.5 0.55 0.27 1 2.52 1 5 0 2.48 0.45 4.73 1 5 0.55 0.27 0.99 2.86 0.98 5.75-0.01 2.89 0.41 5.7 0.93 6.25 0.52 0.55 1.24 4.6 1.6 9 0.36 4.4 0.65 23.08 0.65 41.5 0 18.42-0.29 37.1-0.65 41.5-0.36 4.4-1.08 8.45-1.6 9-0.52 0.55-0.94 3.36-0.93 6.25 0.01 2.89-0.43 5.48-0.98 5.75-0.55 0.27-1 2.52-1 5 0 2.48-0.45 4.73-1 5-0.55 0.27-1 2.3-1 4.5 0 2.2-0.45 4.23-1 4.5-0.55 0.27-1.19 2.19-1.42 4.25-0.23 2.06-0.91 5.77-1.52 8.25-0.6 2.48-1.25 4.95-1.44 5.5-0.19 0.55-0.74 2.97-1.23 5.37-0.49 2.4-1.23 4.54-1.64 4.75-0.41 0.21-0.75 1.51-0.75 2.88 0 1.38-0.45 2.5-1 2.5-0.55 0-1 1.13-1 2.5 0 1.38-0.45 2.73-1 3-0.55 0.27-1 1.4-1 2.5 0 1.1-0.45 2.9-1 4-0.55 1.1-1.45 2.9-2 4-0.55 1.1-1 2.67-1 3.5 0 0.83-0.34 1.5-0.75 1.5-0.41 0-1.34 1.91-2.06 4.25-0.72 2.34-3.4 8.52-5.97 13.75-2.56 5.23-5.01 9.61-5.44 9.75-0.43 0.14-0.78 1.15-0.78 2.25 0 1.1-0.34 2.11-0.75 2.25-0.41 0.14-1.81 2.27-3.11 4.75-1.31 2.48-3.19 6.08-4.18 8-1 1.92-2.54 4.17-3.43 5-0.89 0.83-1.6 1.84-1.57 2.25 0.02 0.41-2.44 4.35-5.46 8.75-3.02 4.4-5.5 8.23-5.5 8.5 0 0.27-1.37 1.96-3.03 3.75-1.67 1.79-3.02 3.59-3 4 0.01 0.41-1.32 2.1-2.97 3.75-1.65 1.65-3 3.23-3 3.5 0 0.27-2.36 3.26-5.25 6.64-2.89 3.38-11.8 12.72-19.81 20.75-8.01 8.04-17.36 16.86-20.78 19.61-3.42 2.75-7.89 6.47-9.94 8.26-2.05 1.8-4.17 3.28-4.72 3.29-0.55 0.02-1.67 0.82-2.5 1.78-0.83 0.96-4.13 3.53-7.35 5.71-3.22 2.18-6.65 4.41-7.62 4.96-0.98 0.55-2.62 1.71-3.65 2.58-1.03 0.87-3.46 2.29-5.38 3.15-1.92 0.87-4.17 2.31-5 3.22-0.83 0.9-1.84 1.62-2.25 1.59-0.41-0.02-2.44 0.72-4.5 1.66-2.06 0.93-3.98 1.98-4.25 2.33-0.27 0.35-6.58 3.61-14 7.24-7.42 3.64-15.41 7.2-17.75 7.92-2.34 0.72-4.25 1.65-4.25 2.06 0 0.41-0.9 0.75-2 0.75-1.1 0-2.79 0.4-3.75 0.88-0.96 0.49-3.1 1.44-4.75 2.12-1.65 0.68-3.79 1.63-4.75 2.12-0.96 0.48-2.65 0.88-3.75 0.88-1.1 0-2.23 0.45-2.5 1-0.27 0.55-1.85 1-3.5 1-1.65 0-3.17 0.34-3.38 0.75-0.21 0.41-2.35 1.17-4.75 1.68-2.4 0.5-5.12 0.95-6.03 1-0.91 0.04-2 0.41-2.42 0.82-0.41 0.41-2.25 0.75-4.09 0.75-1.83 0-3.56 0.45-3.83 1-0.27 0.55-2.3 1-4.5 1-2.2 0-4.23 0.45-4.5 1-0.27 0.55-2.75 1-5.5 1-2.75 0-5.23 0.45-5.5 1-0.27 0.55-3.2 1-6.5 1-3.3 0-6.23 0.45-6.5 1-0.28 0.56-4.5 1-9.5 1-5 0-9.22 0.44-9.5 1-0.31 0.63-9.77 1.01-25.25 1.02-14.22 0.01-25.18-0.39-25.75-0.93-0.55-0.52-4.82-1.18-9.5-1.45-4.68-0.28-11.65-1-15.5-1.6-3.85-0.6-9.02-1.35-11.5-1.67-2.48-0.31-4.95-0.98-5.5-1.48-0.55-0.51-2.69-0.92-4.75-0.91-2.06 0.01-3.98-0.43-4.25-0.98-0.27-0.55-2.07-1-4-1-1.93 0-3.73-0.45-4-1-0.27-0.55-1.06-0.72-1.75-0.38-0.69 0.34-2.15 0.17-3.25-0.38-1.1-0.56-4.02-1.56-6.5-2.24-2.48-0.68-5.4-1.58-6.5-2.01-1.1-0.43-3.57-1.33-5.5-1.99-1.93-0.66-4.63-1.67-6-2.23-1.37-0.57-3.62-1.48-5-2.02-1.37-0.54-3.29-1.38-4.25-1.87-0.96-0.48-2.43-0.88-3.25-0.88-0.82 0-1.5-0.45-1.5-1 0-0.55-1.24-1.26-2.75-1.58-1.51-0.32-5.45-1.9-8.75-3.5-3.3-1.61-6.56-2.93-7.25-2.92-0.69 0-1.26-0.34-1.27-0.75 0-0.41-2.26-1.87-5.01-3.25-2.75-1.37-5-2.84-4.99-3.25 0.01-0.41-0.88-0.75-1.98-0.75-1.1 0-2-0.45-2-1 0-0.55-0.79-1.21-1.75-1.47-0.96-0.26-2.64-1.05-3.73-1.75-1.09-0.7-3.8-2.4-6.02-3.78-2.22-1.37-4.75-2.95-5.62-3.5-0.87-0.55-3.34-2.24-5.48-3.75-2.15-1.52-5.77-4.22-8.06-6-2.29-1.79-6.71-5.27-9.82-7.75-3.11-2.48-7.09-5.55-8.84-6.82-1.75-1.28-4.64-3.87-6.43-5.75-1.79-1.89-3.72-3.32-4.3-3.18-0.72 0.17-1.05 12.02-1.05 36.75 0.01 27.12-0.3 36.83-1.19 37.79-0.97 1.04-15.03 1.29-70.46 1.25-38.09-0.02-69.93-0.27-70.75-0.54-1.33-0.44-1.5-53.61-1.5-470.5zm323 394c-3.3 0-6.15 0.45-6.33 1-0.18 0.55-2.2 1-4.5 1-2.29 0-4.4 0.45-4.67 1-0.27 0.55-2.07 1-4 1-1.93 0-3.73 0.45-4 1-0.27 0.55-2.75 1.23-5.5 1.5-2.75 0.27-5.23 0.95-5.5 1.5-0.27 0.55-1.63 1-3 1-1.38 0-2.5 0.45-2.5 1 0 0.55-0.79 0.99-1.75 0.98-0.96-0.02-4.45 1.27-7.75 2.87-3.3 1.59-9.6 4.64-14 6.77-4.4 2.14-8.11 4.22-8.25 4.63-0.14 0.41-0.7 0.75-1.25 0.75-0.55 0-2.91 1.23-5.25 2.73-2.34 1.5-4.97 3.19-5.86 3.75-0.88 0.56-3.36 2.26-5.5 3.77-2.14 1.51-5.31 3.76-7.06 5-1.74 1.24-5.52 4.27-8.41 6.75-2.88 2.48-8.66 7.92-12.83 12.09-4.17 4.17-9.61 9.99-12.09 12.92-2.48 2.94-5.4 6.68-6.5 8.33-1.1 1.65-2.45 3.72-3 4.6-0.55 0.87-2.2 3.16-3.66 5.08-1.46 1.91-4.07 5.96-5.8 8.98-1.73 3.02-3.35 6.29-3.59 7.25-0.25 0.96-0.9 1.75-1.45 1.75-0.55 0-1 0.9-1 2 0 1.1-0.34 2-0.75 2.01-0.41 0-1.32 1.24-2.01 2.75-0.69 1.51-1.26 3.3-1.25 3.99 0.01 0.69-0.44 1.25-0.99 1.25-0.55 0-1 0.67-1 1.5 0 0.83-0.4 2.29-0.88 3.25-0.49 0.96-1.44 3.1-2.12 4.75-0.68 1.65-1.63 3.79-2.12 4.75-0.48 0.96-0.87 2.31-0.86 3 0.01 0.69-0.7 3.73-1.59 6.75-0.89 3.02-2.02 6.29-2.52 7.25-0.5 0.96-0.91 3.1-0.91 4.75 0 1.65-0.45 3.23-1 3.5-0.55 0.27-1 2.3-1 4.5 0 2.2-0.45 4.23-1 4.5-0.55 0.27-0.91 2.88-0.8 5.8 0.12 3.17-0.28 5.68-1.01 6.25-0.9 0.71-1.1 7.43-0.78 26.95 0.23 14.3 0.72 28.7 1.09 32 0.37 3.3 1.09 6.45 1.6 7 0.52 0.55 0.93 2.69 0.92 4.75-0.01 2.06 0.43 3.98 0.98 4.25 0.55 0.27 1 1.85 1 3.5 0 1.65 0.41 3.79 0.92 4.75 0.5 0.96 1.61 4.23 2.46 7.25 0.85 3.02 2.13 7.41 2.84 9.75 0.7 2.34 1.62 4.25 2.03 4.25 0.41 0 0.75 0.67 0.75 1.5 0 0.83 0.41 2.29 0.91 3.25 0.5 0.96 3.02 6.02 5.59 11.25 2.57 5.23 5.64 11.3 6.83 13.5 1.19 2.2 2.93 4.67 3.88 5.5 0.94 0.83 1.73 2.06 1.75 2.75 0.02 0.69 1.05 2.37 2.29 3.73 1.24 1.37 3.82 4.53 5.75 7.02 1.93 2.49 6.53 8.01 10.23 12.27 3.7 4.25 10.79 11.44 15.75 15.98 4.96 4.54 9.36 8.27 9.77 8.29 0.41 0.02 1.99 1.37 3.5 3 1.51 1.63 3.09 2.96 3.5 2.96 0.41 0 2.32 1.36 4.25 3.01 1.93 1.65 4.29 3.22 5.25 3.49 0.96 0.28 1.75 0.95 1.75 1.5 0 0.55 0.9 1 2 1 1.1 0 2.11 0.34 2.25 0.75 0.14 0.41 1.6 1.67 3.25 2.8 1.65 1.12 6.6 3.75 11 5.84 4.4 2.09 10.02 4.71 12.5 5.83 2.48 1.12 5.4 2.37 6.5 2.77 1.1 0.41 3.35 1.31 5 1.99 1.65 0.69 3.79 1.65 4.75 2.14 0.96 0.48 2.65 0.88 3.75 0.88 1.1 0 2.23 0.45 2.5 1 0.27 0.55 1.85 1 3.5 1 1.65 0 3.23 0.45 3.5 1 0.27 0.55 2.19 1.23 4.25 1.52 2.06 0.29 4.87 0.74 6.25 1 1.37 0.27 5.87 1 10 1.62 4.14 0.63 19.16 1.14 33.5 1.14 15.52 0 28.62-0.47 32.5-1.17 3.58-0.65 7.96-1.16 9.75-1.14 1.79 0.01 3.48-0.42 3.75-0.97 0.27-0.55 2.08-1 4-1 1.92 0 3.73-0.45 4-1 0.27-0.55 1.62-1 3-1 1.37 0 2.73-0.45 3-1 0.27-0.55 1.62-1 3-1 1.37 0 2.73-0.45 3-1 0.27-0.55 1.17-1 2-1 0.83 0 3.41-0.91 5.75-2.01 2.34-1.11 4.7-2 5.25-1.99 0.55 0.02 3.05-0.98 5.55-2.23 2.5-1.25 6.22-2.94 8.27-3.77 2.04-0.83 3.71-1.84 3.7-2.25-0.01-0.41 0.88-0.75 1.98-0.75 1.1 0 2-0.45 2-1 0-0.55 0.45-1 1-1 0.55 0 3.02-1.35 5.5-3 2.48-1.65 4.84-2.99 5.25-2.97 0.41 0.02 1.65-0.89 2.75-2.03 1.1-1.14 2.45-2.04 3-2.01 0.55 0.04 2.12-1.09 3.5-2.49 1.37-1.4 2.95-2.53 3.5-2.5 0.55 0.02 2.35-1.33 4-3 1.65-1.67 3.45-3.03 4-3.01 0.55 0.02 7.52-6.61 15.5-14.74 7.98-8.12 15.85-16.51 17.5-18.63 1.65-2.13 3.67-4.88 4.5-6.12 0.83-1.23 3.53-5.34 6-9.12 2.48-3.79 5.18-8.23 6-9.88 0.82-1.65 1.73-3.23 2.02-3.5 0.29-0.27 1.95-3.42 3.69-7 1.74-3.58 4.32-9.09 5.73-12.25 1.41-3.16 2.56-6.2 2.56-6.75 0-0.55 0.45-1.9 1-3 0.55-1.1 1.45-2.9 2-4 0.55-1.1 1-2.9 1-4 0-1.1 0.45-2.23 1-2.5 0.55-0.27 1-1.85 1-3.5 0-1.65 0.45-3.23 1-3.5 0.55-0.27 0.99-1.96 0.98-3.75-0.01-1.79 0.4-3.7 0.9-4.25 0.5-0.55 1.2-3.02 1.56-5.5 0.35-2.48 0.9-7.2 1.22-10.5 0.33-3.3 0.59-16.8 0.6-30 0-13.2-0.26-26.48-0.58-29.5-0.32-3.02-1.04-7.75-1.59-10.5-0.56-2.75-1.29-6.58-1.62-8.5-0.33-1.92-0.97-4.4-1.42-5.5-0.45-1.1-1.37-4.02-2.05-6.5-0.68-2.48-1.69-5.62-2.25-7-0.56-1.37-1.41-3.51-1.88-4.75-0.48-1.24-1.29-3.26-1.79-4.5-0.51-1.24-1.72-4.5-2.7-7.25-0.98-2.75-2.05-5.23-2.37-5.5-0.33-0.27-2.38-4.05-4.55-8.4-2.18-4.34-4.3-8.05-4.71-8.25-0.41-0.19-1.68-2.26-2.82-4.6-1.14-2.34-2.72-5.49-3.5-7-0.79-1.51-2.1-2.98-2.93-3.25-0.83-0.27-1.48-1.06-1.47-1.75 0.02-0.69-1.22-2.61-2.75-4.27-1.53-1.66-3.97-4.59-5.41-6.5-1.45-1.91-8.2-9.05-15-15.85-6.81-6.8-13.72-13.3-15.37-14.45-1.65-1.15-3.67-2.88-4.5-3.84-0.83-0.97-2.06-1.78-2.75-1.8-0.69-0.02-1.81-0.63-2.5-1.34-0.69-0.72-3.96-3.09-7.27-5.25-3.32-2.17-6.92-4.49-8-5.15-1.09-0.66-5.36-2.9-9.48-4.97-4.13-2.07-7.61-4.11-7.75-4.55-0.14-0.43-1.15-0.78-2.25-0.78-1.1 0-2-0.45-2-1 0-0.55-0.9-1-2-1-1.1 0-2-0.45-2-1 0-0.55-1.01-0.99-2.25-0.98-1.24 0.01-2.7-0.4-3.25-0.91-0.55-0.5-3.25-1.69-6-2.64-2.75-0.96-5.67-1.84-6.5-1.96-0.83-0.13-2.17-0.46-3-0.73-0.83-0.27-3.08-1.01-5-1.63-1.92-0.62-4.4-1.12-5.5-1.12-1.1 0-2.45-0.41-3-0.91-0.55-0.5-3.02-1.21-5.5-1.56-2.48-0.36-6.98-0.89-10-1.19-3.02-0.3-5.95-0.96-6.5-1.47-0.56-0.53-11.86-0.93-25.7-0.92-15.42 0.01-24.91 0.4-25.25 1.02-0.3 0.55-3.25 1-6.55 1zm33 90.4c8.52 0.23 17.75 0.73 20.5 1.11 2.75 0.38 5.45 1.1 6 1.6 0.55 0.51 2.46 0.92 4.25 0.91 1.79-0.01 3.25 0.43 3.25 0.98 0 0.55 1.12 1 2.5 1 1.37 0 2.73 0.45 3 1 0.27 0.55 1.29 0.99 2.25 0.97 0.96-0.02 5.58 1.92 10.25 4.31 4.67 2.39 10.07 5.45 12 6.78 1.92 1.34 4.17 3.21 5 4.15 0.82 0.94 1.95 1.71 2.5 1.7 0.55 0 5.05 3.98 10 8.85 4.95 4.86 9.45 9.54 10 10.39 0.55 0.85 2.3 3.53 3.9 5.95 1.59 2.42 3.18 4.63 3.53 4.9 0.34 0.27 2.93 5.23 5.75 11 2.83 5.77 5.66 12.52 6.3 15 0.64 2.48 1.62 6.3 2.17 8.5 0.56 2.2 1.48 6.92 2.04 10.5 0.57 3.58 1.01 11.45 0.99 17.5-0.01 6.05-0.33 13.92-0.69 17.5-0.36 3.58-1.08 6.95-1.59 7.5-0.51 0.55-0.93 2.01-0.92 3.25 0.01 1.24-0.7 4.61-1.59 7.5-0.88 2.89-2.23 6.71-3 8.5-0.76 1.79-2.15 4.94-3.07 7-0.93 2.06-2.84 5.56-4.25 7.77-1.41 2.21-3.02 4.73-3.57 5.6-0.55 0.87-2.19 3.34-3.64 5.48-1.45 2.15-7.13 8.17-12.62 13.4-5.49 5.23-11.39 10.51-13.11 11.75-1.72 1.24-3.47 2.24-3.88 2.22-0.41-0.02-1.5 0.77-2.41 1.75-0.91 0.98-3.29 2.45-5.27 3.28-1.98 0.83-3.6 1.84-3.59 2.25 0.01 0.41-0.88 0.75-1.98 0.75-1.1 0-2 0.34-2 0.75 0 0.41-1.23 1.3-2.75 1.97-1.51 0.68-4.27 1.58-6.12 2-1.86 0.43-3.54 1.12-3.75 1.53-0.21 0.41-1.51 0.75-2.88 0.75-1.38 0-2.73 0.45-3 1-0.27 0.55-2.21 1-4.3 1-2.09 0-4.36 0.56-5.05 1.25-0.93 0.93-6.51 1.2-21.95 1.06-13.28-0.12-21.06-0.57-21.7-1.27-0.55-0.59-2.24-1.07-3.75-1.06-1.51 0.01-3.54-0.39-4.5-0.9-0.96-0.5-4.45-1.66-7.75-2.58-3.3-0.92-9.82-3.53-14.5-5.81-4.68-2.27-9.18-4.92-10-5.87-0.82-0.96-1.95-1.76-2.5-1.78-0.55-0.02-2.35-1.18-4-2.57-1.65-1.39-3.34-2.52-3.75-2.5-0.41 0.02-5.25-4.58-10.75-10.22-5.5-5.64-9.99-10.7-9.99-11.25 0.01-0.55-0.9-1.67-2.01-2.5-1.11-0.83-2-1.95-1.97-2.5 0.03-0.55-0.67-1.67-1.57-2.5-0.9-0.83-3.21-4.88-5.15-9-1.94-4.13-4.16-8.85-4.94-10.5-0.78-1.65-1.4-3.79-1.39-4.75 0.01-0.96-0.43-1.75-0.98-1.75-0.55 0-1-1.35-1-3 0-1.65-0.45-3.23-1-3.5-0.55-0.27-0.99-1.96-0.98-3.75 0.01-1.79-0.4-3.7-0.9-4.25-0.5-0.55-1.23-4.15-1.62-8-0.39-3.85-0.72-10.38-0.74-14.5-0.01-4.13 0.37-11.03 0.86-15.36 0.48-4.32 1.22-8.03 1.63-8.25 0.41-0.21 0.75-1.97 0.75-3.89 0-1.92 0.45-3.73 1-4 0.55-0.27 1-1.85 1-3.5 0-1.65 0.45-3 1-3 0.55 0 1-1.13 1-2.5 0-1.38 0.45-2.73 1-3 0.55-0.27 1-1.4 1-2.5 0-1.1 0.45-2 1-2 0.55 0 1-0.9 1-2 0-1.1 0.34-2.11 0.75-2.25 0.41-0.14 2.02-2.73 3.57-5.75 1.55-3.02 5.29-8.88 8.31-13 3.03-4.13 7.16-9.23 9.18-11.34 2.03-2.11 7.96-7.09 13.19-11.05 5.23-3.97 14-9.38 19.5-12.03 5.5-2.66 10.78-5.22 11.73-5.71 0.95-0.48 2.86-0.87 4.25-0.87 1.38 0 2.52-0.45 2.52-1 0-0.55 1.54-1 3.42-1 1.87 0 3.67-0.45 4-1 0.32-0.55 2.27-1.01 4.33-1.02 2.06 0 4.43-0.46 5.25-1.01 0.91-0.6 7.64-0.83 17-0.57z"/>
</svg>