<svg version="1.2" xmlns="http://www.w3.org/2000/svg" viewBox="0 0 1024 390" width="1024" height="390">
	<style>
		.s0 { opacity: .99;fill: #090908 } 
	</style>
	<path id="Path 0" fill-rule="evenodd" class="s0" d="m81.83 61.22c14.67-0.14 23.35 0.15 23.67 0.78 0.28 0.55 0.5 24.85 0.5 54 0 46.44 0.19 53 1.5 53 0.83 0 2.29-1.05 3.25-2.34 0.96-1.28 4.67-4.55 8.25-7.25 3.58-2.7 9.65-6.35 13.5-8.11 3.85-1.75 10.82-4.23 15.5-5.49 7.39-2.01 10.79-2.31 26-2.28 15.81 0.03 18.49 0.29 27.75 2.75 5.64 1.5 14.41 4.77 19.5 7.27 5.09 2.51 11.72 6.43 14.75 8.73 3.03 2.29 8.36 7.11 11.85 10.7 3.49 3.58 8.3 9.45 10.68 13.02 2.38 3.57 6.11 10.32 8.28 15 2.17 4.68 4.87 11.88 6 16 1.13 4.13 2.53 10.76 3.12 14.75 0.59 3.99 1.07 11.41 1.08 16.5 0.01 5.09-0.68 13.3-1.52 18.25-0.85 4.95-2.46 11.93-3.59 15.5-1.12 3.57-3.67 9.88-5.65 14-1.98 4.13-5.73 10.65-8.34 14.5-2.6 3.85-8.38 10.49-12.82 14.75-4.45 4.26-11.13 9.71-14.84 12.1-3.71 2.38-9.22 5.49-12.25 6.9-3.03 1.4-9.32 3.7-14 5.1-4.68 1.41-12.55 2.98-17.5 3.5-4.95 0.52-12.6 0.76-17 0.53-4.4-0.24-11.6-1.15-16-2.03-4.4-0.88-10.25-2.38-13-3.34-2.75-0.95-7.47-2.98-10.5-4.5-3.03-1.53-7.53-4.17-10-5.86-2.47-1.69-6.42-4.9-8.77-7.12-2.35-2.21-4.48-3.8-4.73-3.53-0.26 0.27-0.59 5.45-1 22.5l-47.5 0.5-0.01-14.25c-0.01-7.84-0.09-72.42-0.18-143.51-0.08-71.1 0.07-129.61 0.34-130.03 0.28-0.42 10.93-0.86 23.68-0.99zm58.42 129.32c-5 2.39-9.38 5.55-14.11 10.21-3.78 3.71-8.42 9.22-10.33 12.25-1.9 3.02-4.43 7.97-5.62 11-1.19 3.02-2.67 7.97-3.29 11-0.63 3.05-0.94 10.18-0.7 16 0.33 8.1 1.05 12.21 3.13 18 1.48 4.12 4.6 10.38 6.93 13.9 2.33 3.52 6.71 8.7 9.74 11.51 3.03 2.8 7.97 6.52 11 8.26 3.03 1.73 8.88 4.19 13 5.47 6.04 1.86 9.74 2.31 19 2.29 8.05-0.02 13.15-0.55 17-1.76 3.03-0.95 8.43-3.35 12-5.32 3.57-1.97 8.53-5.27 11-7.33 2.47-2.06 6.96-7.29 9.96-11.63 3-4.34 6.31-10.14 7.34-12.89 1.04-2.75 2.52-8.26 3.29-12.25 0.78-3.99 1.41-9.5 1.41-12.25 0-2.75-0.67-8.26-1.5-12.25-0.82-3.99-3.49-11.3-5.93-16.25-3-6.1-6.3-10.94-10.25-15.03-3.2-3.31-8.29-7.66-11.32-9.66-3.03-1.99-8.99-4.79-13.25-6.22-5.01-1.67-10.85-2.76-16.5-3.07-5.6-0.3-11.63 0.07-16.75 1.04-4.4 0.84-11.26 3.08-15.25 4.98zm413.59-129.55l0.16 289.01h-49l-0.08-37.75c-0.05-20.76-0.11-85.36-0.15-143.55-0.04-58.19 0.21-106.19 0.55-106.67 0.34-0.48 11.4-0.91 48.52-1.04zm78.66 0.51l-0.2 144c-0.11 79.2-0.34 144.11-0.5 144.25-0.17 0.14-10.76 0.25-23.55 0.25-12.79 0-23.7-0.23-24.25-0.5-0.66-0.33-0.89-48.75-0.67-143.25 0.18-78.51 0.6-143.26 0.93-143.88 0.42-0.8 7.61-1.09 48.24-0.87zm302 0.06l0.36 84.94 39.64 1 0.5 43.5-2.75 0.02c-1.51 0.02-10.51 0.02-20 0-15.75-0.02-17.26 0.13-17.31 1.73-0.04 0.96-0.11 22.9-0.16 48.75-0.08 40.84 0.12 47.65 1.54 52 0.89 2.75 2.65 5.99 3.9 7.2 1.25 1.21 4.3 2.91 6.78 3.77 2.48 0.86 7.2 1.57 10.5 1.56 3.3 0 8.48-0.46 11.5-1.01 3.02-0.54 5.62-0.89 5.76-0.76 0.14 0.13 0.36 10.01 0.5 21.94 0.15 13.47-0.14 22.09-0.76 22.71-0.55 0.56-8.42 1.32-17.5 1.69-11.28 0.46-18.87 0.29-24-0.54-4.12-0.67-9.98-2.13-13-3.23-3.02-1.11-7.19-2.87-9.25-3.92-2.06-1.05-6.18-4.27-9.16-7.16-3.67-3.57-6.53-7.65-8.91-12.75-1.93-4.12-4.29-11.32-5.25-16-1.5-7.39-1.74-15.48-1.93-115.5l-12-0.21c-6.6-0.11-13.01-0.22-16.5-0.29v-44h29l-0.17-42.33c-0.09-24.38 0.22-42.65 0.74-43.08 0.5-0.41 11.49-0.58 47.93-0.03zm-174.5 81.91c8.31 0.24 15.35 1.07 21 2.48 4.67 1.17 10.98 3.1 14 4.28 3.02 1.19 8.88 4.2 13 6.69 4.13 2.5 11.03 7.92 15.35 12.06 4.32 4.13 9.8 10.45 12.17 14.02 2.37 3.58 5.97 10.1 8 14.5 2.03 4.4 4.29 9.8 5.03 12 0.73 2.2 2.22 8.5 3.31 14 1.08 5.5 2.22 14.28 2.53 19.5 0.31 5.23 0.24 11.87-0.89 20.03l-149.5-0.03 0.63 2.75c0.34 1.51 1.47 5.23 2.52 8.25 1.04 3.02 3.34 7.9 5.12 10.83 1.78 2.93 5.03 7.15 7.23 9.37 2.2 2.23 6.25 5.52 9 7.31 2.75 1.8 7.92 4.33 11.5 5.62 5.51 1.99 8.32 2.34 18.5 2.3 10.68-0.05 12.77-0.36 19-2.82 3.85-1.52 8.57-3.97 10.49-5.44 1.91-1.47 4.95-4.13 6.75-5.92 1.79-1.79 4.45-5.16 5.89-7.5 1.45-2.34 2.69-4.36 2.75-4.49 0.07-0.13 9.57 3.81 21.12 8.74 13.21 5.65 20.89 9.44 20.69 10.24-0.17 0.69-1.74 3.66-3.5 6.6-1.75 2.94-5.69 8.34-8.75 12-3.06 3.66-9.36 9.53-14 13.03-4.64 3.51-10.69 7.51-13.44 8.89-2.75 1.38-8.83 3.76-13.5 5.29-4.67 1.53-11.42 3.32-15 3.98-3.58 0.65-11.67 1.19-18 1.2-6.33 0-15.55-0.71-20.5-1.59-4.95-0.88-11.48-2.46-14.5-3.52-3.02-1.06-8.2-3.14-11.5-4.62-3.3-1.49-9.13-4.79-12.96-7.35-3.83-2.56-10.32-8.02-14.43-12.15-4.1-4.12-9.49-10.65-11.98-14.5-2.48-3.85-5.96-10.15-7.72-14-1.76-3.85-4.12-10.15-5.25-14-1.12-3.85-2.56-9.92-3.19-13.5-0.63-3.57-1.14-12.12-1.13-19 0.01-6.87 0.71-16.32 1.55-21 0.84-4.67 2.27-10.97 3.18-14 0.92-3.02 3.32-9.1 5.35-13.5 2.03-4.4 5.46-10.7 7.63-14 2.17-3.3 6.93-9.15 10.57-13 3.64-3.85 9.04-8.86 12-11.12 2.96-2.27 7.63-5.36 10.38-6.86 2.75-1.5 7.48-3.74 10.5-4.97 3.02-1.23 8.42-2.98 12-3.89 3.58-0.91 9.2-2.08 12.5-2.6 3.3-0.53 11.63-0.79 18.5-0.59zm-27.5 46.75c-1.65 0.85-5.36 3.4-8.25 5.67-2.89 2.26-7.14 6.7-9.44 9.86-2.31 3.16-5.23 8.34-6.5 11.5-1.27 3.16-2.31 6.65-2.31 7.75 0 1.98 0.57 2 49.25 1.72l49.25-0.28c-0.39-4.99-1.88-9.48-3.57-13.19-1.68-3.71-5.17-9.19-7.75-12.17-2.57-2.99-6.93-6.92-9.68-8.75-2.75-1.83-7.92-4.22-11.5-5.32-4.68-1.44-9.16-1.97-16-1.91-6.04 0.05-11.5 0.72-15 1.82-3.02 0.96-6.85 2.45-8.5 3.3zm-386-42.72l0.19 59c0.12 40.31 0.56 61.22 1.37 66 0.66 3.85 2.44 9.7 3.97 13 1.86 4.03 4.53 7.56 8.12 10.73 2.94 2.6 7.83 5.68 10.85 6.85 3.02 1.17 8.2 2.37 11.5 2.67 3.3 0.3 8.93-0.02 12.5-0.71 3.58-0.69 9.09-2.55 12.25-4.15 3.63-1.82 7.15-4.64 9.54-7.64 2.09-2.61 4.79-7.34 6-10.5 1.22-3.16 2.66-8.56 3.2-12 0.56-3.52 1.07-31.95 1.34-123.79l48.17 0.54 0.11 58.5c0.07 32.18-0.25 62.1-0.7 66.5-0.44 4.4-1.58 11.15-2.52 15-0.94 3.85-2.99 10.15-4.56 14-1.57 3.85-4.31 9.44-6.09 12.43-1.78 2.99-6.16 8.56-9.74 12.38-3.57 3.82-9.2 8.87-12.5 11.21-3.3 2.35-9.15 5.69-13 7.43-3.85 1.75-10.6 4.04-15 5.1-4.4 1.06-12.5 2.21-18 2.56-7 0.44-13.3 0.15-21-0.97-6.05-0.89-14.15-2.68-18-3.98-3.85-1.3-9.02-3.39-11.5-4.64-2.48-1.24-7.42-4.41-11-7.03-3.57-2.63-8.32-6.73-10.54-9.13-2.22-2.4-6.02-7.28-8.44-10.86-2.41-3.57-5.48-8.97-6.81-12-1.34-3.02-3.6-9.77-7.63-24.5l-0.24-64.87c-0.14-35.68-0.05-65.5 0.2-66.27 0.37-1.15 4.59-1.35 47.96-0.86zm-175.5 64.97c5.18 0.33 9.05 1.23 12.5 2.91 2.75 1.35 6.76 4.17 8.91 6.28 2.15 2.11 5.3 6.77 7 10.34 2.74 5.77 3.09 7.51 3.09 15.52 0 8.09-0.33 9.69-3.16 15.5-1.8 3.7-5.02 8.17-7.5 10.42-2.39 2.17-6.59 4.97-9.34 6.23-2.75 1.25-7.7 2.58-11 2.93-4.29 0.47-7.71 0.18-12-1.03-3.3-0.93-8.25-3.2-11-5.04-2.75-1.85-6.22-5.08-7.7-7.19-1.49-2.11-3.71-6.09-4.93-8.84-1.71-3.82-2.23-6.89-2.23-13 0-6.79 0.46-8.98 3.02-14.5 1.66-3.57 4.33-8.02 5.93-9.89 1.6-1.86 4.94-4.55 7.41-5.97 2.48-1.43 6.53-3.17 9-3.87 2.69-0.75 7.51-1.08 12-0.8z"/>
</svg>